<svg xmlns="http://www.w3.org/2000/svg" viewBox="0 0 32 32" width="32" height="32">
	<style>
		tspan { white-space:pre }
		.shp0 { fill: #ffffff } 
	</style>
	<g id="Layer_2">
		<path id="Layer" fill-rule="evenodd" class="shp0" d="M16 0C24.9 0 32 7.1 32 16C32 24.9 24.9 32 16 32C7.1 32 0 24.9 0 16C0 7.1 7.1 0 16 0ZM16 29.9C23.7 29.9 29.9 23.7 29.9 16C29.9 8.3 23.7 2.1 16 2.1C8.3 2.1 2.1 8.3 2.1 16C2.1 23.7 8.3 29.9 16 29.9Z" />
		<path id="Layer" class="shp0" d="M10 11.8L16 17.8L22 11.8C22.4 11.4 23.1 11.4 23.5 11.8L23.5 11.8C23.9 12.2 23.9 12.9 23.5 13.3L16.7 20.1C16.3 20.5 15.7 20.5 15.3 20.1L8.6 13.3C8.2 12.9 8.2 12.2 8.6 11.8L8.6 11.8C9 11.4 9.6 11.4 10 11.8Z" />
	</g>
</svg>