<?xml version="1.0" encoding="utf-8"?>
<!-- Generator: Adobe Illustrator 24.2.3, SVG Export Plug-In . SVG Version: 6.00 Build 0)  -->
<svg version="1.1" id="Calque_1" xmlns="http://www.w3.org/2000/svg" xmlns:xlink="http://www.w3.org/1999/xlink" x="0px" y="0px"
	 viewBox="0 0 32 32" style="enable-background:new 0 0 32 32;" xml:space="preserve">
<style type="text/css">
	.st0{fill:#FFFFFF;}
</style>
<g id="Layer_2">
	<path class="st0" d="M0,16C0,7.1,7.1,0,16,0s16,7.1,16,16s-7.1,16-16,16S0,24.9,0,16z M29.9,16c0-7.7-6.2-13.9-13.9-13.9
		S2.1,8.3,2.1,16S8.3,29.9,16,29.9S29.9,23.7,29.9,16z"/>
	<path class="st0" d="M11.8,22l6-6l-6-6c-0.4-0.4-0.4-1.1,0-1.5l0,0c0.4-0.4,1.1-0.4,1.5,0l6.8,6.8c0.4,0.4,0.4,1,0,1.4l-6.8,6.7
		c-0.4,0.4-1.1,0.4-1.5,0l0,0C11.4,23,11.4,22.4,11.8,22z"/>
</g>
</svg>
