<?xml version="1.0" encoding="utf-8"?>
<!-- Generator: Adobe Illustrator 23.1.0, SVG Export Plug-In . SVG Version: 6.00 Build 0)  -->
<svg version="1.1" id="Capa_1" xmlns="http://www.w3.org/2000/svg" xmlns:xlink="http://www.w3.org/1999/xlink" x="0px" y="0px"
	 viewBox="0 0 21.6 40" style="enable-background:new 0 0 21.6 40;" xml:space="preserve" width="25px" height="25px">
<g fill="#6f675e">
	<path d="M20.8,0l-5.2,0C9.8,0,6,3.9,6,9.8v4.5H0.8c-0.5,0-0.8,0.4-0.8,0.8v6.6c0,0.5,0.4,0.8,0.8,0.8H6v16.6C6,39.6,6.4,40,6.8,40
		h6.8c0.5,0,0.8-0.4,0.8-0.8V22.6h6.1c0.5,0,0.8-0.4,0.8-0.8l0-6.6c0-0.2-0.1-0.4-0.2-0.6s-0.4-0.2-0.6-0.2h-6.1v-3.8
		c0-1.8,0.4-2.8,2.8-2.8l3.5,0c0.5,0,0.8-0.4,0.8-0.8V0.8C21.6,0.4,21.3,0,20.8,0z"/>
</g>
</svg>
