<?xml version="1.0" encoding="utf-8"?>
<!-- Generator: Adobe Illustrator 23.1.0, SVG Export Plug-In . SVG Version: 6.00 Build 0)  -->
<svg version="1.1" id="Calque_1" xmlns="http://www.w3.org/2000/svg" xmlns:xlink="http://www.w3.org/1999/xlink" x="0px" y="0px"
	 viewBox="0 0 43.1 41.6" style="enable-background:new 0 0 43.1 41.6;" xml:space="preserve" width="25px" height="25px">
<style type="text/css">
	.st0{fill:none;stroke:#6f675e;stroke-width:1.6;stroke-linecap:round;stroke-linejoin:round;stroke-miterlimit:8;}
	.st1{fill:none;stroke:#6f675e;stroke-width:1.5808;stroke-linecap:round;stroke-linejoin:round;stroke-miterlimit:8;}
</style>
<path class="st0" d="M0.8,12.6h8.9v19.5v8.7H0.8V12.6z"/>
<path class="st1" d="M5.2,8.2L5.2,8.2c-2.7,0-4.4-1.7-4.4-3.8s1.8-3.7,4.4-3.7s4.3,1.6,4.4,3.7C9.7,6.5,8,8.2,5.2,8.2z"/>
<path class="st0" d="M42.3,40.8h-8.9c0,0,0-13.7,0-14.8c0-3-1.5-5.9-5.2-6c-3.7-0.1-5.2,3-5.2,6c0,1.3,0,14.8,0,14.8h-8.9V12.6H23
	v3.8c0,0,2.9-3.8,8.6-3.8c5.9,0,10.6,4,10.6,12.2V40.8z"/>
</svg>
