<?xml version="1.0" encoding="utf-8"?>
<!-- Generator: Adobe Illustrator 23.1.0, SVG Export Plug-In . SVG Version: 6.00 Build 0)  -->
<svg version="1.1"
	 id="svg3626" xmlns:cc="http://creativecommons.org/ns#" xmlns:dc="http://purl.org/dc/elements/1.1/" xmlns:rdf="http://www.w3.org/1999/02/22-rdf-syntax-ns#" xmlns:svg="http://www.w3.org/2000/svg"
	 xmlns="http://www.w3.org/2000/svg" xmlns:xlink="http://www.w3.org/1999/xlink" x="0px" y="0px" viewBox="0 0 49.2 40"
	 style="enable-background:new 0 0 49.2 40;" xml:space="preserve"  width="25px" height="25px">
<style type="text/css">
	.st0{fill:#6f675e;}
</style>
<g id="layer1" transform="translate(-539.17946,-568.85777)">
	<path id="path3611" class="st0" d="M554.7,608.9c18.6,0,28.7-15.4,28.7-28.7c0-0.4,0-0.9,0-1.3c2-1.4,3.7-3.2,5-5.2
		c-1.8,0.8-3.8,1.3-5.8,1.6c2.1-1.3,3.7-3.2,4.4-5.6c-2,1.2-4.1,2-6.4,2.5c-1.8-2-4.5-3.2-7.4-3.2c-5.6,0-10.1,4.5-10.1,10.1
		c0,0.8,0.1,1.6,0.3,2.3c-8.4-0.4-15.8-4.4-20.8-10.6c-0.9,1.5-1.4,3.2-1.4,5.1c0,3.5,1.8,6.6,4.5,8.4c-1.7-0.1-3.2-0.5-4.6-1.3
		c0,0,0,0.1,0,0.1c0,4.9,3.5,9,8.1,9.9c-0.8,0.2-1.7,0.4-2.7,0.4c-0.6,0-1.3-0.1-1.9-0.2c1.3,4,5,6.9,9.4,7
		c-3.5,2.7-7.8,4.3-12.5,4.3c-0.8,0-1.6,0-2.4-0.1C543.6,607.2,549,608.9,554.7,608.9"/>
</g>
</svg>
