<?xml version="1.0" encoding="utf-8"?>
<!-- Generator: Adobe Illustrator 20.0.0, SVG Export Plug-In . SVG Version: 6.00 Build 0)  -->
<svg version="1.1" id="Calque_1" xmlns="http://www.w3.org/2000/svg" xmlns:xlink="http://www.w3.org/1999/xlink" x="0px" y="0px"
	 viewBox="0 0 263.3 235.3" style="enable-background:new 0 0 263.3 235.3;" xml:space="preserve" height="110px">
<style type="text/css">
	.st0{fill:#FFFFFF;}
	.st1{fill:#6E675E;}
	.st2{clip-path:url(#SVGID_4_);fill:#6E675E;}
	.st3{clip-path:url(#SVGID_6_);fill:#6E675E;}
	.st4{fill:none;}
	.st5{enable-background:new    ;}
</style>
<path class="st0" d="M349,167.4c0.2,0.7,0.2,1-0.7,1.5C348.2,168,348.2,168,349,167.4z"/>
<path class="st0" d="M100.9,246.3c0.1,0.6,0,0.9-0.7,1.2C100.2,246.6,100.2,246.6,100.9,246.3z"/>
<path class="st0" d="M114.6,201.9c0.1,0.6,0,0.9-0.7,1.2C113.8,202.3,113.8,202.3,114.6,201.9z"/>
<path class="st0" d="M311.2,174.3c0.2,0.7,0.2,1-0.7,1.5C310.4,174.9,310.4,174.9,311.2,174.3z"/>
<g>
	<rect x="122.4" y="82.4" class="st1" width="5.8" height="8.9"/>
	<rect x="139.9" y="82.4" class="st1" width="5.8" height="8.9"/>
	<rect x="154.3" y="82.4" class="st1" width="5.8" height="8.9"/>
	<rect x="176" y="82.4" class="st1" width="5.8" height="8.9"/>
	<rect x="175.7" y="98.1" class="st1" width="6.1" height="11.5"/>
	<rect x="191.2" y="98.1" class="st1" width="6.1" height="11.5"/>
	<rect x="191.3" y="82.4" class="st1" width="5.8" height="8.9"/>
	<polygon class="st1" points="67.5,133 67.5,133.3 72.2,133.3 72.2,133 72.2,124.4 67.5,124.4 	"/>
	<polygon class="st1" points="97.6,133 97.6,133.5 102.2,133.5 102.2,133 102.2,124.5 97.6,124.5 	"/>
	<polygon class="st1" points="107.1,133 107.1,133.4 111.8,133.4 111.8,133 111.8,124.4 107.1,124.4 	"/>
	<g>
		<path class="st1" d="M129.2,99.3L129.2,99.3c0-3.3-3.7-4.6-3.7-4.6s-3.7,1.6-3.7,4.6l0,0v8.9h7.4V99.3z"/>
		<path class="st1" d="M146.6,99.3L146.6,99.3c0-3.3-3.7-4.6-3.7-4.6s-3.7,1.6-3.7,4.6l0,0v8.9h7.4V99.3z"/>
		<path class="st1" d="M161.2,99.3L161.2,99.3c0-3.3-3.7-4.6-3.7-4.6s-3.7,1.6-3.7,4.6l0,0v8.9h7.4V99.3z"/>
		<path class="st1" d="M160.8,118.1c0-3.3-3.7-4.6-3.7-4.6s-3.7,1.6-3.7,4.6l0,0l0.1,7.9h7.4L160.8,118.1L160.8,118.1z"/>
		<path class="st1" d="M130.1,124.6v-5l0,0c0-2.8-4.6-5.1-4.6-5.1s-4.6,2.5-4.6,5.1l0,0v5H130.1z"/>
	</g>
	<rect x="175.2" y="117.3" class="st1" width="6" height="11.6"/>
	<rect x="190.6" y="117.3" class="st1" width="6" height="11.6"/>
	<g>
		<path class="st1" d="M78.6,100.9L78.6,100.9H85v-0.1v-6.4C81.5,94.6,78.7,97.4,78.6,100.9"/>
		<path class="st1" d="M85.4,100.9h6.3l0,0l0,0v-0.1l0,0c-0.1-3.4-2.8-6.2-6.3-6.4V100.9L85.4,100.9z"/>
		<path class="st1" d="M73,62.9c2.4,0,4.4,1.6,4.5,1.8L76.8,65h-7.7l-0.6-0.2l0,0C68.4,64.6,70.4,62.9,73,62.9 M67.5,65
			c-1.2,2.1-2.1,4.4-2.6,6.8V65H67.5z M105.6,65h3.7v11.1h-0.5v0.8h52.8h6.8h31v32.3h-31h-0.5H162h-0.5h-11.9l-6.5-3.5l-6.6,3.5
			h-19.4v0.8H135l-1.7,0.9l0.5,0.5v0.3h2.2v20.5H64.1v-15h-0.4h0.4v-0.4h53v-0.9h-5.3v-12.6h-4.7v12.6h-4.8v-12.4h-4.7v12.4h-5.9
			v-14.5l0,0h-6.3v6.3v8.2h-0.5v-8.2v-6.3h-6.4l0,0c0,0.1,0,0.2,0,0.2v14.3h-6.4v-12.7h-4.7v12.7H64v-16h12.4c0-0.5,0.1-0.9,0.2-1.3
			l0,0c0.8-3.1,3-5.5,5.9-6.4c0.3,1.2,1.2,2.2,2.4,2.3v0.1c0,0,0.1,0,0.2,0s0.2,0,0.3,0v-0.1c1.2-0.1,2.1-1.1,2.4-2.3
			c2.9,0.9,5.1,3.4,5.9,6.4l0,0c0.1,0.4,0.2,0.9,0.2,1.3h23.2v-1.3l-6.3-5.7l-4.8-1.7H87.9l0,0c0-0.1,0-0.3-0.1-0.5
			c-0.3-1-1-1.8-2-2.1h23.5V88H64.9l-0.2-0.2l-0.3-0.3l0,0l-0.3-0.3h45.7l1.5-1.3H64.7v-1.6v-0.8v-3.1v-0.8v-0.2h43.8h1.8v-1.3h-1.7
			c0-0.5,0-0.9,0-1.4C108.7,72.3,107.6,68.3,105.6,65 M91.5,52.3v2.1c-1.6-0.4-3.2-0.6-5-0.6c-1.5,0-3,0.1-4.4,0.5v-2H91.5
			L91.5,52.3z M148.8,111.7v20.5h-1.3v-16.9H139v16.9h-1.3v-20.5H148.8z M150.6,132.2v-20.5v-0.4v-0.1l0.3,0.2h1.4l0.5-0.5l-1.6-0.9
			h10.4h0.5h5.9h0.5h31v22.2H150.6z M82,50.7l4.8-3l4.7,3v0.2H82V50.7z M81.6,65.1l-0.8-0.3l0,0c0-0.2,2.7-2.4,5.9-2.4
			c3.2,0,5.8,2.1,5.9,2.4l-0.9,0.4L81.6,65.1L81.6,65.1z M90.1,67.1v10.7h-6.8V67.1l0,0l0,0c0-0.2,1.5-0.8,3.4-0.8
			S90.1,66.9,90.1,67.1L90.1,67.1L90.1,67.1z M154.5,67.2c0-0.2,1.2-0.8,2.7-0.8s2.7,0.6,2.7,0.8l0,0l0,0v8.9h-5.5v-8.9H154.5
			L154.5,67.2 M140.2,67.2c0-0.2,1.2-0.8,2.7-0.8s2.7,0.6,2.7,0.8l0,0l0,0v8.9h-5.5v-8.9H140.2L140.2,67.2 M122.6,67.2
			c0-0.2,1.2-0.8,2.7-0.8s2.7,0.6,2.7,0.8l0,0l0,0v8.9h-5.5v-8.9H122.6C122.7,67.2,122.6,67.2,122.6,67.2 M152.8,64.9L152.8,64.9
			c0-0.1,2-1.9,4.5-1.9c2.4,0,4.4,1.6,4.5,1.8l-0.7,0.3h-7.7L152.8,64.9z M138.5,64.9L138.5,64.9c0-0.1,2-1.9,4.5-1.9
			c2.4,0,4.4,1.6,4.5,1.8l-0.7,0.3h-7.7L138.5,64.9z M125.4,63c2.4,0,4.4,1.6,4.5,1.8l-0.7,0.3h-7.7l-0.6-0.2l0,0
			C120.9,64.7,122.9,63,125.4,63 M96.7,65L96,64.8l0,0c0-0.1,2-1.9,4.5-1.9c2.4,0,4.4,1.6,4.5,1.8l-0.7,0.3
			C104.3,65,96.7,65,96.7,65z M103.3,67.1v10.7h-5.5V67.1l0,0l0,0c0-0.2,1.2-0.8,2.7-0.8C102.1,66.3,103.3,66.9,103.3,67.1
			L103.3,67.1L103.3,67.1z M82.6,90.6c0,0.1-0.1,0.3-0.1,0.5H65v-0.4v-2.1h19.6C83.6,88.8,82.9,89.6,82.6,90.6 M75.8,67.1v10.7h-5.5
			V67.1l0,0l0,0c0-0.2,1.2-0.8,2.7-0.8C74.6,66.3,75.8,66.9,75.8,67.1L75.8,67.1L75.8,67.1z M92.8,54v-1.9c0.2-0.1,0.3-0.3,0.3-0.5
			s-0.1-0.4-0.3-0.5v-1l-6-3.8L80.7,50v0.9v0.2c-0.1,0.1-0.1,0.3-0.1,0.4c0,0.3,0.2,0.6,0.5,0.7v1.5l-3.6,1.1v0.8l-0.1,0.1
			c-3.2,1.5-6,3.8-8.2,6.6h-6.3v3.5h0.7v11.4h-0.9V80h0.7v3.3v0.1v0.8v1.1h-3l3.2,3.3v2.9v5.8L63,98.2h-0.1v0.1l-0.1,0.1v33.8H49.9
			v3.1H215v-3.1h-14.4V40.7h-13.8l-14.4,8.4l-2.3,9.6l-0.4,1.3h-0.1l-2.3,1.6h2.3h0.5h6.3v-8.1l0,0l0,0c0-0.2,1.2-0.7,2.6-0.7
			s2.6,0.6,2.6,0.7l0,0l0,0v8v0.1h10.3v-0.1v-8l0,0l0,0c0-0.2,1.2-0.7,2.6-0.7s2.6,0.6,2.6,0.7l0,0l0,0v8.1h2.2v14.6h-2.2V65.8h-5.8
			v10.4h-9.6V65.8h-5.8v10.4h-6.3V61.5h-1.5l0,0h-65c-0.8-0.9-1.6-1.8-2.6-2.6c-0.1-0.1-0.3-0.3-0.5-0.4C98.8,57.6,95.2,55,92.8,54
			L92.8,54z"/>
	</g>
	<rect x="81.9" y="124.5" class="st1" width="6.3" height="4.3"/>
	<rect x="175.7" y="130.8" class="st1" width="5.1" height="3.3"/>
	<rect x="191.1" y="130.9" class="st1" width="5.2" height="3.2"/>
	<g>
		<path class="st1" d="M50.1,148.4h1.6v10.3h5.4v1.5h-7V148.4z"/>
		<path class="st1" d="M58.8,148.4h7.6v1.5h-6v3.5H66v1.5h-5.6v3.8h6.3v1.5h-8L58.8,148.4L58.8,148.4z"/>
		<path class="st1" d="M73.8,148.4H78c0.8,0,1.4,0.1,1.9,0.3s0.9,0.5,1.2,0.8s0.5,0.7,0.6,1.1c0.1,0.4,0.2,0.8,0.2,1.1
			s0,0.7-0.2,1.1c-0.1,0.4-0.3,0.8-0.6,1.1c-0.3,0.3-0.7,0.6-1.2,0.8S78.8,155,78,155h-2.6v5.2h-1.6V148.4z M75.4,153.6h2.1
			c0.3,0,0.6,0,0.9-0.1c0.3,0,0.6-0.1,0.8-0.3c0.2-0.1,0.4-0.3,0.6-0.6c0.1-0.3,0.2-0.6,0.2-1s-0.1-0.7-0.2-1
			c-0.1-0.2-0.3-0.5-0.6-0.6c-0.2-0.1-0.5-0.2-0.8-0.3c-0.3,0-0.6-0.1-0.9-0.1h-2.1V153.6z"/>
		<path class="st1" d="M83.8,148.4h1.6v4.9h6.1v-4.9h1.6v11.8h-1.6v-5.4h-6.1v5.4h-1.6V148.4L83.8,148.4z"/>
		<path class="st1" d="M96.2,148.4h1.6v11.8h-1.6V148.4z"/>
		<path class="st1" d="M100.9,148.4h1.6v10.3h5.4v1.5h-7V148.4z"/>
		<path class="st1" d="M113.4,148.4h1.5l5.1,11.8h-2l-1.2-2.9h-5.6l-1.2,2.9h-1.9L113.4,148.4z M116.2,155.9l-2.2-5.4l0,0l-2.2,5.4
			H116.2z"/>
		<path class="st1" d="M121.5,148.4h2.1l6.5,9.7l0,0v-9.7h1.6v11.8h-2l-6.6-9.7l0,0v9.7h-1.6L121.5,148.4L121.5,148.4z"/>
		<path class="st1" d="M137.3,149.9h-3.8v-1.5h9.2v1.5h-3.8v10.3h-1.6L137.3,149.9L137.3,149.9z"/>
		<path class="st1" d="M144.5,148.4h1.6v4.9h6.1v-4.9h1.6v11.8h-1.6v-5.4h-6.1v5.4h-1.6V148.4z"/>
		<path class="st1" d="M156.9,148.4h4.2c0.8,0,1.4,0.1,1.9,0.3s0.9,0.5,1.2,0.8s0.5,0.7,0.6,1.1c0.1,0.4,0.2,0.8,0.2,1.1
			c0,0.4-0.1,0.7-0.2,1.1c-0.1,0.4-0.3,0.7-0.6,1c-0.2,0.3-0.5,0.5-0.9,0.7s-0.8,0.3-1.2,0.4l3.4,5.4h-2l-3-5.2h-1.8v5.2h-1.6v-11.9
			H156.9z M158.5,153.6h2.1c0.3,0,0.6,0,0.9-0.1c0.3,0,0.6-0.1,0.8-0.3c0.2-0.1,0.4-0.3,0.6-0.6c0.1-0.3,0.2-0.6,0.2-1
			s-0.1-0.7-0.2-1c-0.1-0.2-0.3-0.5-0.6-0.6c-0.2-0.1-0.5-0.2-0.8-0.3c-0.3,0-0.6-0.1-0.9-0.1h-2.1V153.6z"/>
		<path class="st1" d="M172.6,160.5c-0.9,0-1.7-0.2-2.5-0.5s-1.4-0.8-2-1.3c-0.5-0.5-1-1.2-1.3-2s-0.5-1.6-0.5-2.5s0.1-1.7,0.5-2.5
			c0.3-0.8,0.7-1.4,1.3-2c0.5-0.5,1.2-1,2-1.3s1.6-0.5,2.5-0.5s1.7,0.2,2.5,0.5s1.4,0.8,2,1.3c0.5,0.5,1,1.2,1.3,2s0.5,1.6,0.5,2.5
			s-0.1,1.7-0.5,2.5c-0.3,0.8-0.7,1.4-1.3,2c-0.5,0.5-1.2,1-2,1.3C174.4,160.3,173.5,160.5,172.6,160.5z M172.6,159
			c0.7,0,1.3-0.1,1.8-0.4c0.5-0.2,1-0.6,1.4-1s0.7-0.9,0.9-1.5s0.3-1.2,0.3-1.8s-0.1-1.3-0.3-1.8c-0.2-0.6-0.5-1.1-0.9-1.5
			s-0.9-0.8-1.4-1c-0.5-0.3-1.2-0.4-1.8-0.4s-1.3,0.1-1.8,0.4c-0.5,0.2-1,0.6-1.4,1s-0.7,0.9-0.9,1.5s-0.3,1.2-0.3,1.8
			s0.1,1.3,0.3,1.8c0.2,0.6,0.5,1.1,0.9,1.5s0.9,0.8,1.4,1C171.3,158.9,172,159,172.6,159z"/>
		<path class="st1" d="M184.3,156.9h-4.1v-1.4h4.1V156.9z"/>
		<path class="st1" d="M186.5,148.4h1.6v10.3h5.4v1.5h-7V148.4z"/>
		<path class="st1" d="M198.9,148.4h1.5l5.1,11.8h-1.9l-1.2-2.9h-5.6l-1.2,2.9h-1.9L198.9,148.4z M201.8,155.9l-2.2-5.4l0,0
			l-2.2,5.4H201.8z"/>
		<path class="st1" d="M207.1,148.4h4.1c0.5,0,1,0.1,1.4,0.2c0.4,0.1,0.8,0.3,1.1,0.5s0.6,0.5,0.7,0.9c0.2,0.4,0.3,0.8,0.3,1.3
			c0,0.7-0.2,1.2-0.6,1.7c-0.4,0.4-0.9,0.7-1.5,1l0,0c0.4,0,0.7,0.1,1,0.3s0.6,0.4,0.8,0.6c0.2,0.3,0.4,0.6,0.5,0.9s0.2,0.7,0.2,1.1
			c0,0.5-0.1,1-0.3,1.4s-0.5,0.7-0.9,1s-0.8,0.5-1.3,0.6s-1.1,0.2-1.6,0.2h-4.1L207.1,148.4L207.1,148.4z M208.7,153.3h2.2
			c0.3,0,0.6,0,0.9-0.1c0.3-0.1,0.5-0.2,0.7-0.3s0.4-0.3,0.5-0.5s0.2-0.5,0.2-0.8c0-0.5-0.1-0.9-0.5-1.2c-0.3-0.3-0.8-0.5-1.4-0.5
			h-2.5L208.7,153.3L208.7,153.3z M208.7,158.8h2.4c0.2,0,0.5,0,0.8-0.1c0.3,0,0.6-0.1,0.8-0.3c0.3-0.1,0.5-0.4,0.6-0.6
			c0.2-0.3,0.3-0.6,0.3-1c0-0.7-0.2-1.2-0.7-1.6c-0.5-0.4-1.1-0.5-1.9-0.5h-2.4L208.7,158.8L208.7,158.8z"/>
	</g>
</g>
<g>
	<g>
		<rect id="SVGID_1_" x="42.8" y="23.2" class="st1" width="179.1" height="1.7"/>
	</g>
	<g>
		<g>
			<defs>
				<rect id="SVGID_2_" x="42.8" y="23.2" width="179.1" height="1.7"/>
			</defs>
			<clipPath id="SVGID_4_">
				<use xlink:href="#SVGID_2_"  style="overflow:visible;"/>
			</clipPath>
			<rect x="42.8" y="23.2" class="st2" width="179.1" height="1.7"/>
		</g>
	</g>
</g>
<g>
	<g>
		<rect id="SVGID_3_" x="42.8" y="177.3" class="st1" width="179.1" height="1.7"/>
	</g>
	<g>
		<g>
			<defs>
				<rect id="SVGID_5_" x="42.8" y="177.3" width="179.1" height="1.7"/>
			</defs>
			<clipPath id="SVGID_6_">
				<use xlink:href="#SVGID_5_"  style="overflow:visible;"/>
			</clipPath>
			<rect x="42.8" y="177.3" class="st3" width="179.1" height="1.7"/>
		</g>
	</g>
</g>
<rect x="-75.2" y="193.4" class="st4" width="409.3" height="149.3"/>
<g class="st5">
	<path class="st1" d="M37.8,196c-0.7,1.6-5.5,10.7-11.2,16c1.4,0.4,3,0.7,4.8,0.7c2.9,0,5.7-2,7.8-4.5c6.1-7.3,3.8-15.6-4-15.6
		c-5.5,0-10.5,3.4-11.2,4.2c-0.1,0.2-1.4,0.1-0.9-0.5c1.4-1.4,6.2-4.7,12-4.7c9.5,0,11.7,9.5,5.1,17.3c-2.3,2.7-5.3,4.6-8.9,4.7
		c-2.3,0.1-4.2-0.2-5.9-0.7c-2.2,1.8-4.5,2.9-6.8,2.7c-5.2-0.5-4.5-5,0.6-5.3c2.1-0.1,4,0.5,6.1,1.2c5.2-4.7,10.1-13.5,11.7-16.5
		C37.5,194.8,38,195.4,37.8,196z M19.3,211.6c-3.7,0.1-4.4,3.1,0,3.1c1.6,0,3.2-0.8,4.9-2.1C22.3,212.1,20.8,211.6,19.3,211.6z"/>
	<path class="st1" d="M47.8,204.1c3.7-1.1,5.1,2.5,0.1,7.7c-4.2,4.3-7.7,0.7-4.6-3.8c0.7-1.1,1.7-1.9,2.3-2.4c0,0,0-0.1,0-0.2
		C45.8,205,46.9,204.3,47.8,204.1z M46.7,206c-4.6,3.9-3.5,6.6-2.1,6.5c0.8-0.1,1.8-0.6,3.2-2.3c4-4.8,1.7-6.6-1.1-4.6
		C46.8,205.8,46.8,205.9,46.7,206z"/>
	<path class="st1" d="M59.3,204.3c1.1,0.7,0.2,2.7-1.4,4.8c-1.4,1.8-1.4,3-0.4,3.1c0.9,0,2.1-0.6,5.1-3.2c0.5-0.4,0.4,0.8,0.2,1
		c-0.2,0.2-3.4,3.4-5.3,3.4c-0.9,0-1.9-0.3-1.9-1.8c0-1.7,1.7-3.6,2.3-4.7c1.1-1.7-0.2-2-2.1-0.2c-1,0.9-2.4,2.2-3.5,3.5
		c-0.8,1.4-1.4,2.5-1.6,2.6c-0.5,0.5-1-0.5-0.6-1.3c0.9-1.4,2.3-3.7,4.4-7.8c0.2-0.3,1.1,0,1.1,0.3c0,0.1-0.7,1.4-1.6,2.9
		C55.2,205.6,58,203.6,59.3,204.3z"/>
	<path class="st1" d="M70.1,204.3c1.1,0.7,0.2,2.7-1.4,4.8c-1.4,1.8-1.4,3-0.4,3.1c0.9,0,2.1-0.6,5.1-3.2c0.5-0.4,0.4,0.8,0.2,1
		c-0.2,0.2-3.4,3.4-5.3,3.4c-0.9,0-1.9-0.3-1.9-1.8c0-1.7,1.7-3.6,2.3-4.7c1.1-1.7-0.2-2-2.1-0.2c-1,0.9-2.4,2.2-3.5,3.5
		c-0.8,1.4-1.4,2.5-1.6,2.6c-0.5,0.5-1-0.5-0.6-1.3c0.9-1.4,2.3-3.7,4.4-7.8c0.2-0.3,1.1,0,1.1,0.3c0,0.1-0.7,1.4-1.6,2.9
		C66.1,205.6,68.9,203.6,70.1,204.3z"/>
	<path class="st1" d="M82.3,209.1c0.5-0.4,0.4,0.8,0.2,1c-0.2,0.2-3.2,3.2-5.7,3.5c-2,0.3-3.3-0.4-3.8-1.9c-0.6-1.6,0.2-3.7,2.1-5.4
		c4.3-3.9,7.3-2.3,4.1,1.4c-0.7,0.8-3.9,3.3-5,3.8c0.3,1.2,1.6,1.7,4.7,0.2C79.9,211.1,81.1,210.1,82.3,209.1z M77.7,207.6
		c2.7-2.7,1.4-3.3-1.3-0.9c-1,0.9-1.8,2.3-2.1,3.4C75,209.7,76.6,208.6,77.7,207.6z"/>
	<path class="st1" d="M87.1,207.5c0.8-0.9,1.2-1.6,1-1.8c-0.2-0.2-1.2,0.3-2.1,0.4c-1,1.4-2.4,2.8-3.7,4.2c-0.3,0.2-0.5-0.8-0.4-0.9
		c1.2-1,2.4-2.4,3.2-3.4c-0.5-0.3-0.9-0.8-0.7-1.7c0.6-2.5,3.6-2.2,2.9-0.4c-0.2,0.5-0.5,0.9-0.8,1.4c0.5-0.1,1-0.3,1.3-0.4
		c1.7-0.6,2.8,0.2,1.1,2.1c-0.9,1.1-3.8,5.1-1.7,5.3c0.8,0.1,2.1-0.6,5.1-3.2c0.4-0.4,0.4,0.8,0.2,1c-0.2,0.2-3.4,3.4-5.3,3.4
		C84.9,213.3,84.4,210.7,87.1,207.5z M86.2,204.3c0.4-0.9-0.8-0.7-1,0.3c-0.1,0.4,0,0.7,0.3,0.8C85.9,204.8,86.1,204.5,86.2,204.3z"
		/>
	<path class="st1" d="M105,207.5c0.8-0.9,1.2-1.6,1-1.8c-0.2-0.2-1.2,0.3-2.1,0.4c-1,1.4-2.4,2.8-3.7,4.2c-0.3,0.2-0.5-0.8-0.4-0.9
		c1.2-1,2.4-2.4,3.2-3.4c-0.5-0.3-0.9-0.8-0.7-1.7c0.6-2.5,3.6-2.2,2.9-0.4c-0.2,0.5-0.5,0.9-0.8,1.4c0.5-0.1,1-0.3,1.3-0.4
		c1.7-0.6,2.8,0.2,1.1,2.1c-0.9,1.1-3.8,5.1-1.7,5.3c0.8,0.1,2.1-0.6,5.1-3.2c0.4-0.4,0.4,0.8,0.2,1c-0.2,0.2-3.4,3.4-5.3,3.4
		C102.8,213.3,102.3,210.7,105,207.5z M104.1,204.3c0.4-0.9-0.8-0.7-1,0.3c-0.1,0.4,0,0.7,0.3,0.8
		C103.7,204.8,104,204.5,104.1,204.3z"/>
	<path class="st1" d="M119,209.1c0.5-0.4,0.4,0.8,0.2,1c-0.2,0.2-3.2,3.2-5.7,3.5c-2,0.3-3.3-0.4-3.8-1.9c-0.6-1.6,0.2-3.7,2.1-5.4
		c4.3-3.9,7.3-2.3,4.1,1.4c-0.7,0.8-3.9,3.3-5,3.8c0.3,1.2,1.6,1.7,4.7,0.2C116.6,211.1,117.8,210.1,119,209.1z M114.4,207.6
		c2.7-2.7,1.4-3.3-1.3-0.9c-1,0.9-1.8,2.3-2.1,3.4C111.7,209.7,113.4,208.6,114.4,207.6z"/>
	<path class="st1" d="M126.6,204.3c1.1,0.7,0.2,2.7-1.4,4.8c-1.4,1.8-1.4,3-0.4,3.1c0.9,0,2.1-0.6,5.1-3.2c0.5-0.4,0.4,0.8,0.2,1
		c-0.2,0.2-3.4,3.4-5.3,3.4c-0.9,0-1.9-0.3-1.9-1.8c0-1.7,1.7-3.6,2.3-4.7c1.1-1.7-0.2-2-2.1-0.2c-1,0.9-2.4,2.2-3.5,3.5
		c-0.8,1.4-1.4,2.5-1.6,2.6c-0.5,0.5-1-0.5-0.6-1.3c0.9-1.4,2.3-3.7,4.4-7.8c0.2-0.3,1.1,0,1.1,0.3c0,0.1-0.7,1.4-1.6,2.9
		C122.6,205.6,125.4,203.6,126.6,204.3z"/>
	<path class="st1" d="M136.9,209.3c-0.4,1.8,0,2.9,0.9,3c0.9,0,2.2-0.6,5.1-3.2c0.5-0.4,0.4,0.8,0.2,1c-0.2,0.2-3.4,3.4-5.3,3.4
		c-1.2,0-2.1-1.1-2.1-3c-1.3,1.1-2.3,1.9-2.7,2.1c-3.4,2-5.3-1.3-1.8-5.3c2.9-3.3,5.2-2.8,6-2.3c0.9-1.6,2.1-3.4,3.8-5.4
		c8-9.3,12.7-7.4,2.9,3C141.4,205.1,138.9,207.5,136.9,209.3z M131.9,208.1c-2.5,3.9-1.3,5.1,1.6,2.8c0.7-0.5,1.4-1.2,2.1-1.8
		c0.1-0.9,0.4-1.9,0.9-3C136,204.3,133.2,206.3,131.9,208.1z M144.7,199.9c6.6-7,2.8-6.4-2.8,0.3c-2.2,2.7-3.7,5.3-4.5,7.4
		C141,204.2,144,200.6,144.7,199.9z"/>
	<path class="st1" d="M163,205.6c-0.4-0.6-2.2,0.4-3.6,1.6s-4.1,5-4.6,5.3c-0.3,0.2-0.9,0-0.7-0.4c0.2-0.4,1.6-2.5,2.9-4.8
		c1.3-2.3,0-2.1-0.7-1.6c-4.1,3.4-5.7,6-6.3,6.7c-0.6,0.7-1.1-0.4-0.7-1.1c3.2-5.3,4.8-7.3,5.1-7.5c0.1-0.1,0.6,0.5,0.5,0.8
		c0,0.5-0.9,1.5-1.4,2.3c0.4-0.4,2-2,3.1-2.7c1-0.6,3-0.6,2.2,2.3c1.8-1.8,4.3-3.2,5.4-2.2c0.6,0.5,0.4,2.3-1.4,4.4
		c-1.9,2.2-0.9,3.3-0.1,3.4c0.9,0,2.1-0.6,5.1-3.2c0.5-0.4,0.4,0.8,0.2,1c-0.2,0.2-3.2,3.3-5.3,3.4c-1.4,0-3.6-1.4-1.2-4.6
		C162,208,163.5,206.4,163,205.6z"/>
	<path class="st1" d="M176.5,209.1c0.5-0.4,0.4,0.8,0.2,1c-0.2,0.2-3.2,3.2-5.7,3.5c-2,0.3-3.3-0.4-3.8-1.9
		c-0.6-1.6,0.2-3.7,2.1-5.4c4.3-3.9,7.3-2.3,4.1,1.4c-0.7,0.8-3.9,3.3-5,3.8c0.3,1.2,1.6,1.7,4.7,0.2
		C174.1,211.1,175.3,210.1,176.5,209.1z M172,207.6c2.7-2.7,1.4-3.3-1.3-0.9c-1,0.9-1.8,2.3-2.1,3.4
		C169.3,209.7,170.9,208.6,172,207.6z"/>
	<path class="st1" d="M177.8,212.2c0.9,0.1,2.3-0.6,5.2-3.2c0.4-0.4,0.4,0.8,0.2,1c-0.2,0.2-4.3,4.4-6.7,2.8c-1.2-0.9-0.7-3,0.9-5.3
		c1.3-2,2.1-2.9,2.3-3.1c0.3-0.2,1,0.5,0.6,1.1c-0.3,0.4-2.5,3.3-3,4.6C176.9,211.4,177,212.1,177.8,212.2z M182.4,201.5
		c-0.6-0.3-1.4,0-1.7,0.6c-0.3,0.5-0.2,1.3,0.4,1.5C182.3,204.1,183.4,202,182.4,201.5z"/>
	<path class="st1" d="M184,210.7c0,1.2,0.4,1.6,1.1,1.6c0.9,0,2.2-0.6,5.1-3.2c0.5-0.4,0.4,0.8,0.2,1c-0.2,0.2-3.4,3.4-5.3,3.4
		c-3.1-0.1-2.3-4.2-1.7-6c2-6.2,7.3-11.2,9.4-12.6c1.8-1.1,2.9-1.1,3.3-0.6c1.8,2.5-8.6,12.1-11.9,15.1
		C184.1,209.8,184,210.2,184,210.7z M194.9,195.2c-0.2-0.2-0.9,0-2.1,0.9c-2.6,2-6.8,7.4-8.2,11.8
		C188.1,204.8,196.1,196.4,194.9,195.2z"/>
	<path class="st1" d="M191.2,210.7c0,1.2,0.4,1.6,1.1,1.6c0.9,0,2.2-0.6,5.1-3.2c0.5-0.4,0.4,0.8,0.2,1c-0.2,0.2-3.4,3.4-5.3,3.4
		c-3.1-0.1-2.3-4.2-1.7-6c2-6.2,7.3-11.2,9.4-12.6c1.8-1.1,2.9-1.1,3.3-0.6c1.8,2.5-8.6,12.1-11.9,15.1
		C191.2,209.8,191.2,210.2,191.2,210.7z M202,195.2c-0.2-0.2-0.9,0-2.1,0.9c-2.6,2-6.8,7.4-8.2,11.8
		C195.2,204.8,203.2,196.4,202,195.2z"/>
	<path class="st1" d="M206.2,209.1c0.5-0.4,0.4,0.8,0.2,1c-0.2,0.2-3.2,3.2-5.7,3.5c-2,0.3-3.3-0.4-3.8-1.9
		c-0.6-1.6,0.2-3.7,2.1-5.4c4.3-3.9,7.3-2.3,4.1,1.4c-0.7,0.8-3.9,3.3-5,3.8c0.3,1.2,1.6,1.7,4.7,0.2
		C203.8,211.1,205,210.1,206.2,209.1z M201.6,207.6c2.7-2.7,1.4-3.3-1.3-0.9c-1,0.9-1.8,2.3-2.1,3.4
		C198.9,209.7,200.6,208.6,201.6,207.6z"/>
	<path class="st1" d="M211.2,209.9c-2.9,3.7-5.7,4.4-5.5,1.1c0.2-3.4,3.7-6.3,3.9-6.5c0.2-0.2,1.3,0.1,0.9,0.7
		c-0.4,0.5-2.5,2.7-3.2,4.5c-0.7,1.8-0.4,2.8,1.4,1.4c1.8-1.3,4.1-4.3,5.5-6.5c0.2-0.4,1.5-0.1,1,0.5c-0.5,0.6-2.1,3-2.8,4.6
		c-1.2,2.7,0.5,2.8,1.6,2.4c0.9-0.3,2.1-1.3,3.9-3c0.5-0.4,0.4,0.8,0.2,1c-0.2,0.2-3.3,3.4-5.3,3.4
		C211.1,213.4,210.2,211.4,211.2,209.9z"/>
	<path class="st1" d="M222.8,207.5c0.8-0.9,1.2-1.6,1-1.8c-0.2-0.2-1.2,0.3-2.1,0.4c-1,1.4-2.4,2.8-3.7,4.2
		c-0.3,0.2-0.5-0.8-0.4-0.9c1.2-1,2.4-2.4,3.2-3.4c-0.5-0.3-0.9-0.8-0.7-1.7c0.6-2.5,3.6-2.2,2.9-0.4c-0.2,0.5-0.5,0.9-0.8,1.4
		c0.5-0.1,1-0.3,1.3-0.4c1.7-0.6,2.8,0.2,1.1,2.1c-0.9,1.1-3.8,5.1-1.7,5.3c0.8,0.1,2.1-0.6,5.1-3.2c0.4-0.4,0.4,0.8,0.2,1
		c-0.2,0.2-3.4,3.4-5.3,3.4C220.6,213.3,220.2,210.7,222.8,207.5z M221.9,204.3c0.4-0.9-0.8-0.7-1,0.3c-0.1,0.4,0,0.7,0.3,0.8
		C221.6,204.8,221.8,204.5,221.9,204.3z"/>
	<path class="st1" d="M237.4,215.1c-0.6-0.2-0.6-0.7-0.4-1.2c0.2-0.6,1-0.8,1.5-0.5C239.3,213.9,238.5,215.5,237.4,215.1z
		 M238.3,211c0.9-3.2,6-21.7,6.4-23.1c0.5-1.4,2,0.1,1.7,0.8c-1.2,3.7-5.8,17.3-7.3,22.5C239,211.9,238.1,211.6,238.3,211z"/>
</g>
</svg>
